<svg xmlns="http://www.w3.org/2000/svg" xmlns:xlink="http://www.w3.org/1999/xlink" width="500" zoomAndPan="magnify" viewBox="0 0 375 374.999991" height="500" preserveAspectRatio="xMidYMid meet" version="1.0"><defs><g/></defs><g fill="#ff0000" fill-opacity="1"><g transform="translate(24.174897, 143.844661)"><g><path d="M 35 4.296875 C 53.640625 3.875 60.09375 -8.890625 60.09375 -23.953125 C 60.09375 -31.546875 58.375 -39.734375 55.359375 -48.484375 C 55.078125 -49.1875 55.078125 -49.765625 55.640625 -50.34375 C 63.25 -60.953125 69.703125 -69.703125 69.703125 -80.75 C 69.703125 -90.359375 63.109375 -95.65625 56.078125 -95.65625 C 46.03125 -95.65625 39.4375 -86.34375 39.4375 -74.859375 C 39.4375 -67.265625 41.875 -60.53125 43.453125 -53.0625 C 43.75 -52.203125 43.453125 -51.625 43.03125 -51.0625 C 32.703125 -40.296875 22.375 -29.40625 10.75 -20.65625 C 10.046875 -20.078125 9.328125 -20.078125 8.75 -20.9375 C 5.734375 -24.8125 4.734375 -29.109375 4.734375 -32.984375 C 4.734375 -38.71875 7.3125 -45.171875 12.1875 -45.171875 C 13.34375 -45.171875 14.625 -44.890625 15.78125 -44.890625 C 18.9375 -44.890625 20.515625 -46.90625 20.515625 -50.203125 C 20.515625 -53.5 16.921875 -54.9375 12.765625 -54.9375 C 1.140625 -54.9375 -5.59375 -44.890625 -5.59375 -33.421875 C -5.59375 -26.53125 -3.15625 -19.796875 0.859375 -14.34375 C 1.4375 -13.625 1.296875 -12.90625 0.578125 -12.328125 C -3.15625 -9.46875 -7.03125 -7.03125 -9.171875 -5.3125 C -11.328125 -3.875 -11.46875 -2.015625 -11.46875 -1.140625 C -11.46875 1.578125 -8.890625 3.734375 -6.734375 3.734375 C -2.015625 3.734375 3.875 -2.015625 8.03125 -5.3125 C 8.75 -5.734375 9.328125 -5.734375 10.046875 -5.15625 C 17.0625 0.71875 26.25 4.296875 35 4.296875 Z M 51.0625 -64.6875 C 50.203125 -68.703125 49.765625 -72 49.765625 -74.578125 C 49.765625 -82.609375 53.0625 -85.34375 55.640625 -85.34375 C 57.65625 -85.34375 59.515625 -83.90625 59.515625 -80.890625 C 59.515625 -75.15625 56.21875 -69.421875 53.0625 -64.25 C 52.34375 -63.109375 51.34375 -63.390625 51.0625 -64.6875 Z M 34.5625 -6.03125 C 29.546875 -6.03125 23.234375 -7.75 18.5 -11.609375 C 17.640625 -12.328125 17.640625 -13.046875 18.359375 -13.765625 C 27.53125 -21.796875 36.578125 -30.265625 45.171875 -38.875 C 46.03125 -39.734375 46.90625 -39.578125 47.1875 -38.4375 C 48.625 -33.703125 49.765625 -28.109375 49.765625 -22.953125 C 49.765625 -14.484375 45.171875 -6.03125 34.5625 -6.03125 Z M 34.5625 -6.03125 "/></g></g></g><g fill="#ff0000" fill-opacity="1"><g transform="translate(103.471786, 143.844661)"><g><path d="M 39.296875 2.71875 C 50.921875 2.71875 61.09375 -8.890625 72.859375 -25.953125 C 77.59375 -32.84375 69.265625 -37.4375 64.6875 -31.40625 C 56.359375 -20.515625 47.46875 -7.75 40.4375 -7.75 C 37.140625 -7.75 35.140625 -11.1875 35.140625 -15.78125 C 35.140625 -24.375 41.15625 -37.578125 46.90625 -48.484375 C 49.34375 -53.0625 45.328125 -56.9375 42.015625 -56.9375 C 40.15625 -56.9375 37.71875 -55.5 34.703125 -50.203125 C 34.28125 -49.34375 33.5625 -49.1875 32.703125 -49.625 C 30.125 -51.0625 26.53125 -51.625 23.671875 -51.625 C 7.75 -51.625 -7.453125 -33.984375 -7.453125 -16.640625 C -7.453125 -8.46875 -1.140625 -2.15625 7.3125 -2.15625 C 11.609375 -2.15625 17.640625 -3.875 23.953125 -11.765625 C 24.8125 -12.625 25.25 -12.484375 25.390625 -11.46875 C 26.109375 -5.734375 29.96875 2.71875 39.296875 2.71875 Z M 8.890625 -12.046875 C 6.59375 -12.046875 4.734375 -13.484375 4.15625 -17.359375 C 2.875 -25.8125 12.765625 -41.734375 22.515625 -41.734375 C 24.234375 -41.734375 26.671875 -41.3125 28.546875 -40.296875 C 29.40625 -39.875 29.546875 -39.15625 29.265625 -38.4375 C 26.8125 -31.984375 18.078125 -12.046875 8.890625 -12.046875 Z M 8.890625 -12.046875 "/></g></g></g><g fill="#ff0000" fill-opacity="1"><g transform="translate(172.014135, 143.844661)"><g><path d="M 56.65625 -31.40625 C 45.890625 -16.5 34.703125 -8.609375 26.53125 -8.609375 C 19.21875 -8.609375 16.78125 -16.0625 16.78125 -25.25 C 16.78125 -31.84375 18.078125 -39.4375 19.65625 -45.890625 C 19.796875 -46.609375 20.21875 -47.046875 20.9375 -47.328125 C 24.53125 -49.1875 28.25 -51.484375 32.84375 -54.359375 C 43.453125 -61.09375 61.953125 -75.734375 61.953125 -91.078125 C 61.953125 -97.8125 57.078125 -102.265625 49.765625 -102.265625 C 35.5625 -102.265625 19.078125 -82.1875 10.328125 -51.921875 C 10.046875 -51.34375 9.890625 -50.921875 9.609375 -50.34375 C 3.875 -41.15625 -0.4375 -36 -3.875 -31.40625 C -4.875 -29.96875 -5.59375 -28.25 -5.59375 -26.671875 C -5.59375 -24.375 -4.15625 -22.375 -1 -22.375 C 1.140625 -22.375 2.71875 -23.375 4.296875 -25.953125 C 4.453125 -26.25 4.734375 -26.671875 5.015625 -26.96875 C 5.3125 -27.53125 5.734375 -26.53125 5.734375 -25.390625 C 5.734375 -10.90625 12.328125 1.71875 26.25 1.71875 C 38.4375 1.71875 53.0625 -9.46875 64.828125 -25.953125 C 69.265625 -32.265625 61.09375 -37.4375 56.65625 -31.40625 Z M 49.34375 -91.640625 C 51.203125 -91.640625 52.0625 -90.640625 52.0625 -89.0625 C 52.0625 -82.03125 37.140625 -68.703125 27.53125 -62.390625 C 26.25 -61.671875 25.390625 -62.390625 26.109375 -63.671875 C 30.6875 -73.4375 41.453125 -91.640625 49.34375 -91.640625 Z M 49.34375 -91.640625 "/></g></g></g><g fill="#ff0000" fill-opacity="1"><g transform="translate(232.526423, 143.844661)"><g><path d="M 25.09375 -65.40625 C 28.96875 -65.546875 32.5625 -71 32.5625 -75.4375 C 32.5625 -76.875 32.125 -78.171875 31.40625 -79.03125 C 30.125 -81.03125 28.828125 -82.890625 26.25 -82.890625 C 21.9375 -82.890625 18.078125 -76.59375 18.078125 -71.5625 C 18.078125 -68.5625 19.65625 -65.828125 23.375 -65.40625 C 23.953125 -65.40625 24.53125 -65.25 25.09375 -65.40625 Z M 46.90625 -31.40625 C 37.296875 -18.5 27.109375 -8.3125 19.65625 -8.3125 C 16.0625 -8.3125 12.765625 -10.90625 13.1875 -16.5 C 13.625 -23.09375 17.78125 -36.421875 22.65625 -48.484375 C 25.953125 -57.375 15.640625 -60.53125 11.046875 -53.0625 C 8.46875 -48.90625 6.171875 -44.890625 -3.875 -31.40625 C -8.75 -24.953125 -1.4375 -18.359375 3.734375 -25.25 C 4.15625 -25.8125 4.734375 -26.53125 4.734375 -26.53125 C 4.734375 -26.671875 4.453125 -24.671875 4.15625 -23.234375 C 3.296875 -19.5 3.015625 -16.34375 3.015625 -14.203125 C 3.015625 -3.15625 10.609375 1.71875 18.640625 1.71875 C 29.6875 1.71875 43.3125 -9.890625 55.078125 -25.953125 C 59.515625 -32.125 51.625 -37.859375 46.90625 -31.40625 Z M 46.90625 -31.40625 "/></g></g></g><g fill="#ff0000" fill-opacity="1"><g transform="translate(283.287901, 143.844661)"><g><path d="M 85.625 -29.828125 C 84.625 -32.5625 83.328125 -33.421875 81.03125 -33.421875 L 80.03125 -33.421875 C 79.453125 -33.421875 78.734375 -33.125 77.734375 -32.125 C 74.4375 -29.546875 72.71875 -25.8125 69.984375 -22.515625 C 63.96875 -15.921875 58.515625 -10.90625 52.640625 -10.90625 C 48.625 -10.90625 44.453125 -13.1875 39.875 -19.078125 C 39.15625 -20.078125 39.4375 -20.796875 40.59375 -21.078125 C 54.359375 -23.953125 59.953125 -32.703125 59.953125 -40.59375 C 59.953125 -47.765625 55.078125 -54.0625 47.328125 -54.0625 C 41.59375 -54.0625 33.984375 -50.484375 23.671875 -37.296875 C 22.65625 -36.140625 21.515625 -36.71875 21.9375 -38 C 23.953125 -45.328125 24.953125 -49.1875 27.390625 -54.78125 C 27.6875 -55.5 28.109375 -55.9375 28.828125 -56.21875 C 42.59375 -62.390625 63.828125 -77.453125 63.828125 -92.796875 C 63.828125 -97.390625 60.09375 -104.40625 52.5 -104.40625 C 38 -104.40625 28.109375 -85.90625 22.09375 -66.40625 C 21.796875 -65.828125 21.65625 -65.40625 21.21875 -64.828125 C 12.625 -53.78125 8.890625 -48.625 -2.296875 -33.5625 C -9.171875 -24.375 -0.578125 -18.78125 4.453125 -25.8125 C 5.59375 -27.390625 6.890625 -29.109375 8.03125 -30.984375 C 8.890625 -32.125 9.75 -31.703125 9.46875 -30.40625 C 7.890625 -24.375 5.734375 -16.34375 3.015625 -2.71875 C 2.875 -1.859375 2.71875 -1.140625 2.71875 -0.4375 C 2.71875 3.015625 5.15625 5.3125 8.3125 5.3125 C 9.609375 5.3125 12.046875 5.453125 13.90625 0 C 16.203125 -6.734375 18.78125 -13.046875 23.671875 -20.515625 C 24.234375 -21.515625 25.09375 -21.515625 25.671875 -20.515625 C 33.28125 -9.03125 42.171875 -0.4375 52.34375 -0.4375 C 58.796875 -0.4375 65.6875 -3.578125 73.28125 -11.328125 C 74.296875 -12.484375 87.34375 -25.671875 85.625 -29.828125 Z M 51.0625 -94.65625 C 53.0625 -94.65625 53.359375 -92.796875 53.359375 -91.9375 C 53.359375 -85.765625 44.3125 -74.859375 35.859375 -70.421875 C 34.703125 -69.84375 33.984375 -70.5625 34.421875 -71.71875 C 36.859375 -78.734375 45.171875 -94.65625 51.0625 -94.65625 Z M 32.40625 -32.84375 C 34.703125 -36.140625 41.875 -43.59375 46.46875 -43.59375 C 49.1875 -43.59375 49.765625 -42.015625 49.625 -39.875 C 49.046875 -34.703125 42.3125 -30.6875 36 -30.6875 C 35 -30.6875 34.140625 -30.828125 33.125 -31.125 C 32.125 -31.265625 31.84375 -32.125 32.40625 -32.84375 Z M 32.40625 -32.84375 "/></g></g></g><g fill="#00ffff" fill-opacity="1"><g transform="translate(11.062027, 156.072619)"><g><path d="M 35 4.296875 C 53.640625 3.875 60.09375 -8.890625 60.09375 -23.953125 C 60.09375 -31.546875 58.375 -39.734375 55.359375 -48.484375 C 55.078125 -49.1875 55.078125 -49.765625 55.640625 -50.34375 C 63.25 -60.953125 69.703125 -69.703125 69.703125 -80.75 C 69.703125 -90.359375 63.109375 -95.65625 56.078125 -95.65625 C 46.03125 -95.65625 39.4375 -86.34375 39.4375 -74.859375 C 39.4375 -67.265625 41.875 -60.53125 43.453125 -53.0625 C 43.75 -52.203125 43.453125 -51.625 43.03125 -51.0625 C 32.703125 -40.296875 22.375 -29.40625 10.75 -20.65625 C 10.046875 -20.078125 9.328125 -20.078125 8.75 -20.9375 C 5.734375 -24.8125 4.734375 -29.109375 4.734375 -32.984375 C 4.734375 -38.71875 7.3125 -45.171875 12.1875 -45.171875 C 13.34375 -45.171875 14.625 -44.890625 15.78125 -44.890625 C 18.9375 -44.890625 20.515625 -46.90625 20.515625 -50.203125 C 20.515625 -53.5 16.921875 -54.9375 12.765625 -54.9375 C 1.140625 -54.9375 -5.59375 -44.890625 -5.59375 -33.421875 C -5.59375 -26.53125 -3.15625 -19.796875 0.859375 -14.34375 C 1.4375 -13.625 1.296875 -12.90625 0.578125 -12.328125 C -3.15625 -9.46875 -7.03125 -7.03125 -9.171875 -5.3125 C -11.328125 -3.875 -11.46875 -2.015625 -11.46875 -1.140625 C -11.46875 1.578125 -8.890625 3.734375 -6.734375 3.734375 C -2.015625 3.734375 3.875 -2.015625 8.03125 -5.3125 C 8.75 -5.734375 9.328125 -5.734375 10.046875 -5.15625 C 17.0625 0.71875 26.25 4.296875 35 4.296875 Z M 51.0625 -64.6875 C 50.203125 -68.703125 49.765625 -72 49.765625 -74.578125 C 49.765625 -82.609375 53.0625 -85.34375 55.640625 -85.34375 C 57.65625 -85.34375 59.515625 -83.90625 59.515625 -80.890625 C 59.515625 -75.15625 56.21875 -69.421875 53.0625 -64.25 C 52.34375 -63.109375 51.34375 -63.390625 51.0625 -64.6875 Z M 34.5625 -6.03125 C 29.546875 -6.03125 23.234375 -7.75 18.5 -11.609375 C 17.640625 -12.328125 17.640625 -13.046875 18.359375 -13.765625 C 27.53125 -21.796875 36.578125 -30.265625 45.171875 -38.875 C 46.03125 -39.734375 46.90625 -39.578125 47.1875 -38.4375 C 48.625 -33.703125 49.765625 -28.109375 49.765625 -22.953125 C 49.765625 -14.484375 45.171875 -6.03125 34.5625 -6.03125 Z M 34.5625 -6.03125 "/></g></g></g><g fill="#00ffff" fill-opacity="1"><g transform="translate(90.358917, 156.072619)"><g><path d="M 39.296875 2.71875 C 50.921875 2.71875 61.09375 -8.890625 72.859375 -25.953125 C 77.59375 -32.84375 69.265625 -37.4375 64.6875 -31.40625 C 56.359375 -20.515625 47.46875 -7.75 40.4375 -7.75 C 37.140625 -7.75 35.140625 -11.1875 35.140625 -15.78125 C 35.140625 -24.375 41.15625 -37.578125 46.90625 -48.484375 C 49.34375 -53.0625 45.328125 -56.9375 42.015625 -56.9375 C 40.15625 -56.9375 37.71875 -55.5 34.703125 -50.203125 C 34.28125 -49.34375 33.5625 -49.1875 32.703125 -49.625 C 30.125 -51.0625 26.53125 -51.625 23.671875 -51.625 C 7.75 -51.625 -7.453125 -33.984375 -7.453125 -16.640625 C -7.453125 -8.46875 -1.140625 -2.15625 7.3125 -2.15625 C 11.609375 -2.15625 17.640625 -3.875 23.953125 -11.765625 C 24.8125 -12.625 25.25 -12.484375 25.390625 -11.46875 C 26.109375 -5.734375 29.96875 2.71875 39.296875 2.71875 Z M 8.890625 -12.046875 C 6.59375 -12.046875 4.734375 -13.484375 4.15625 -17.359375 C 2.875 -25.8125 12.765625 -41.734375 22.515625 -41.734375 C 24.234375 -41.734375 26.671875 -41.3125 28.546875 -40.296875 C 29.40625 -39.875 29.546875 -39.15625 29.265625 -38.4375 C 26.8125 -31.984375 18.078125 -12.046875 8.890625 -12.046875 Z M 8.890625 -12.046875 "/></g></g></g><g fill="#00ffff" fill-opacity="1"><g transform="translate(158.901266, 156.072619)"><g><path d="M 56.65625 -31.40625 C 45.890625 -16.5 34.703125 -8.609375 26.53125 -8.609375 C 19.21875 -8.609375 16.78125 -16.0625 16.78125 -25.25 C 16.78125 -31.84375 18.078125 -39.4375 19.65625 -45.890625 C 19.796875 -46.609375 20.21875 -47.046875 20.9375 -47.328125 C 24.53125 -49.1875 28.25 -51.484375 32.84375 -54.359375 C 43.453125 -61.09375 61.953125 -75.734375 61.953125 -91.078125 C 61.953125 -97.8125 57.078125 -102.265625 49.765625 -102.265625 C 35.5625 -102.265625 19.078125 -82.1875 10.328125 -51.921875 C 10.046875 -51.34375 9.890625 -50.921875 9.609375 -50.34375 C 3.875 -41.15625 -0.4375 -36 -3.875 -31.40625 C -4.875 -29.96875 -5.59375 -28.25 -5.59375 -26.671875 C -5.59375 -24.375 -4.15625 -22.375 -1 -22.375 C 1.140625 -22.375 2.71875 -23.375 4.296875 -25.953125 C 4.453125 -26.25 4.734375 -26.671875 5.015625 -26.96875 C 5.3125 -27.53125 5.734375 -26.53125 5.734375 -25.390625 C 5.734375 -10.90625 12.328125 1.71875 26.25 1.71875 C 38.4375 1.71875 53.0625 -9.46875 64.828125 -25.953125 C 69.265625 -32.265625 61.09375 -37.4375 56.65625 -31.40625 Z M 49.34375 -91.640625 C 51.203125 -91.640625 52.0625 -90.640625 52.0625 -89.0625 C 52.0625 -82.03125 37.140625 -68.703125 27.53125 -62.390625 C 26.25 -61.671875 25.390625 -62.390625 26.109375 -63.671875 C 30.6875 -73.4375 41.453125 -91.640625 49.34375 -91.640625 Z M 49.34375 -91.640625 "/></g></g></g><g fill="#00ffff" fill-opacity="1"><g transform="translate(219.413554, 156.072619)"><g><path d="M 25.09375 -65.40625 C 28.96875 -65.546875 32.5625 -71 32.5625 -75.4375 C 32.5625 -76.875 32.125 -78.171875 31.40625 -79.03125 C 30.125 -81.03125 28.828125 -82.890625 26.25 -82.890625 C 21.9375 -82.890625 18.078125 -76.59375 18.078125 -71.5625 C 18.078125 -68.5625 19.65625 -65.828125 23.375 -65.40625 C 23.953125 -65.40625 24.53125 -65.25 25.09375 -65.40625 Z M 46.90625 -31.40625 C 37.296875 -18.5 27.109375 -8.3125 19.65625 -8.3125 C 16.0625 -8.3125 12.765625 -10.90625 13.1875 -16.5 C 13.625 -23.09375 17.78125 -36.421875 22.65625 -48.484375 C 25.953125 -57.375 15.640625 -60.53125 11.046875 -53.0625 C 8.46875 -48.90625 6.171875 -44.890625 -3.875 -31.40625 C -8.75 -24.953125 -1.4375 -18.359375 3.734375 -25.25 C 4.15625 -25.8125 4.734375 -26.53125 4.734375 -26.53125 C 4.734375 -26.671875 4.453125 -24.671875 4.15625 -23.234375 C 3.296875 -19.5 3.015625 -16.34375 3.015625 -14.203125 C 3.015625 -3.15625 10.609375 1.71875 18.640625 1.71875 C 29.6875 1.71875 43.3125 -9.890625 55.078125 -25.953125 C 59.515625 -32.125 51.625 -37.859375 46.90625 -31.40625 Z M 46.90625 -31.40625 "/></g></g></g><g fill="#00ffff" fill-opacity="1"><g transform="translate(270.175032, 156.072619)"><g><path d="M 85.625 -29.828125 C 84.625 -32.5625 83.328125 -33.421875 81.03125 -33.421875 L 80.03125 -33.421875 C 79.453125 -33.421875 78.734375 -33.125 77.734375 -32.125 C 74.4375 -29.546875 72.71875 -25.8125 69.984375 -22.515625 C 63.96875 -15.921875 58.515625 -10.90625 52.640625 -10.90625 C 48.625 -10.90625 44.453125 -13.1875 39.875 -19.078125 C 39.15625 -20.078125 39.4375 -20.796875 40.59375 -21.078125 C 54.359375 -23.953125 59.953125 -32.703125 59.953125 -40.59375 C 59.953125 -47.765625 55.078125 -54.0625 47.328125 -54.0625 C 41.59375 -54.0625 33.984375 -50.484375 23.671875 -37.296875 C 22.65625 -36.140625 21.515625 -36.71875 21.9375 -38 C 23.953125 -45.328125 24.953125 -49.1875 27.390625 -54.78125 C 27.6875 -55.5 28.109375 -55.9375 28.828125 -56.21875 C 42.59375 -62.390625 63.828125 -77.453125 63.828125 -92.796875 C 63.828125 -97.390625 60.09375 -104.40625 52.5 -104.40625 C 38 -104.40625 28.109375 -85.90625 22.09375 -66.40625 C 21.796875 -65.828125 21.65625 -65.40625 21.21875 -64.828125 C 12.625 -53.78125 8.890625 -48.625 -2.296875 -33.5625 C -9.171875 -24.375 -0.578125 -18.78125 4.453125 -25.8125 C 5.59375 -27.390625 6.890625 -29.109375 8.03125 -30.984375 C 8.890625 -32.125 9.75 -31.703125 9.46875 -30.40625 C 7.890625 -24.375 5.734375 -16.34375 3.015625 -2.71875 C 2.875 -1.859375 2.71875 -1.140625 2.71875 -0.4375 C 2.71875 3.015625 5.15625 5.3125 8.3125 5.3125 C 9.609375 5.3125 12.046875 5.453125 13.90625 0 C 16.203125 -6.734375 18.78125 -13.046875 23.671875 -20.515625 C 24.234375 -21.515625 25.09375 -21.515625 25.671875 -20.515625 C 33.28125 -9.03125 42.171875 -0.4375 52.34375 -0.4375 C 58.796875 -0.4375 65.6875 -3.578125 73.28125 -11.328125 C 74.296875 -12.484375 87.34375 -25.671875 85.625 -29.828125 Z M 51.0625 -94.65625 C 53.0625 -94.65625 53.359375 -92.796875 53.359375 -91.9375 C 53.359375 -85.765625 44.3125 -74.859375 35.859375 -70.421875 C 34.703125 -69.84375 33.984375 -70.5625 34.421875 -71.71875 C 36.859375 -78.734375 45.171875 -94.65625 51.0625 -94.65625 Z M 32.40625 -32.84375 C 34.703125 -36.140625 41.875 -43.59375 46.46875 -43.59375 C 49.1875 -43.59375 49.765625 -42.015625 49.625 -39.875 C 49.046875 -34.703125 42.3125 -30.6875 36 -30.6875 C 35 -30.6875 34.140625 -30.828125 33.125 -31.125 C 32.125 -31.265625 31.84375 -32.125 32.40625 -32.84375 Z M 32.40625 -32.84375 "/></g></g></g><g fill="#000000" fill-opacity="1"><g transform="translate(17.618462, 149.958639)"><g><path d="M 35 4.296875 C 53.640625 3.875 60.09375 -8.890625 60.09375 -23.953125 C 60.09375 -31.546875 58.375 -39.734375 55.359375 -48.484375 C 55.078125 -49.1875 55.078125 -49.765625 55.640625 -50.34375 C 63.25 -60.953125 69.703125 -69.703125 69.703125 -80.75 C 69.703125 -90.359375 63.109375 -95.65625 56.078125 -95.65625 C 46.03125 -95.65625 39.4375 -86.34375 39.4375 -74.859375 C 39.4375 -67.265625 41.875 -60.53125 43.453125 -53.0625 C 43.75 -52.203125 43.453125 -51.625 43.03125 -51.0625 C 32.703125 -40.296875 22.375 -29.40625 10.75 -20.65625 C 10.046875 -20.078125 9.328125 -20.078125 8.75 -20.9375 C 5.734375 -24.8125 4.734375 -29.109375 4.734375 -32.984375 C 4.734375 -38.71875 7.3125 -45.171875 12.1875 -45.171875 C 13.34375 -45.171875 14.625 -44.890625 15.78125 -44.890625 C 18.9375 -44.890625 20.515625 -46.90625 20.515625 -50.203125 C 20.515625 -53.5 16.921875 -54.9375 12.765625 -54.9375 C 1.140625 -54.9375 -5.59375 -44.890625 -5.59375 -33.421875 C -5.59375 -26.53125 -3.15625 -19.796875 0.859375 -14.34375 C 1.4375 -13.625 1.296875 -12.90625 0.578125 -12.328125 C -3.15625 -9.46875 -7.03125 -7.03125 -9.171875 -5.3125 C -11.328125 -3.875 -11.46875 -2.015625 -11.46875 -1.140625 C -11.46875 1.578125 -8.890625 3.734375 -6.734375 3.734375 C -2.015625 3.734375 3.875 -2.015625 8.03125 -5.3125 C 8.75 -5.734375 9.328125 -5.734375 10.046875 -5.15625 C 17.0625 0.71875 26.25 4.296875 35 4.296875 Z M 51.0625 -64.6875 C 50.203125 -68.703125 49.765625 -72 49.765625 -74.578125 C 49.765625 -82.609375 53.0625 -85.34375 55.640625 -85.34375 C 57.65625 -85.34375 59.515625 -83.90625 59.515625 -80.890625 C 59.515625 -75.15625 56.21875 -69.421875 53.0625 -64.25 C 52.34375 -63.109375 51.34375 -63.390625 51.0625 -64.6875 Z M 34.5625 -6.03125 C 29.546875 -6.03125 23.234375 -7.75 18.5 -11.609375 C 17.640625 -12.328125 17.640625 -13.046875 18.359375 -13.765625 C 27.53125 -21.796875 36.578125 -30.265625 45.171875 -38.875 C 46.03125 -39.734375 46.90625 -39.578125 47.1875 -38.4375 C 48.625 -33.703125 49.765625 -28.109375 49.765625 -22.953125 C 49.765625 -14.484375 45.171875 -6.03125 34.5625 -6.03125 Z M 34.5625 -6.03125 "/></g></g></g><g fill="#000000" fill-opacity="1"><g transform="translate(96.915351, 149.958639)"><g><path d="M 39.296875 2.71875 C 50.921875 2.71875 61.09375 -8.890625 72.859375 -25.953125 C 77.59375 -32.84375 69.265625 -37.4375 64.6875 -31.40625 C 56.359375 -20.515625 47.46875 -7.75 40.4375 -7.75 C 37.140625 -7.75 35.140625 -11.1875 35.140625 -15.78125 C 35.140625 -24.375 41.15625 -37.578125 46.90625 -48.484375 C 49.34375 -53.0625 45.328125 -56.9375 42.015625 -56.9375 C 40.15625 -56.9375 37.71875 -55.5 34.703125 -50.203125 C 34.28125 -49.34375 33.5625 -49.1875 32.703125 -49.625 C 30.125 -51.0625 26.53125 -51.625 23.671875 -51.625 C 7.75 -51.625 -7.453125 -33.984375 -7.453125 -16.640625 C -7.453125 -8.46875 -1.140625 -2.15625 7.3125 -2.15625 C 11.609375 -2.15625 17.640625 -3.875 23.953125 -11.765625 C 24.8125 -12.625 25.25 -12.484375 25.390625 -11.46875 C 26.109375 -5.734375 29.96875 2.71875 39.296875 2.71875 Z M 8.890625 -12.046875 C 6.59375 -12.046875 4.734375 -13.484375 4.15625 -17.359375 C 2.875 -25.8125 12.765625 -41.734375 22.515625 -41.734375 C 24.234375 -41.734375 26.671875 -41.3125 28.546875 -40.296875 C 29.40625 -39.875 29.546875 -39.15625 29.265625 -38.4375 C 26.8125 -31.984375 18.078125 -12.046875 8.890625 -12.046875 Z M 8.890625 -12.046875 "/></g></g></g><g fill="#000000" fill-opacity="1"><g transform="translate(165.457701, 149.958639)"><g><path d="M 56.65625 -31.40625 C 45.890625 -16.5 34.703125 -8.609375 26.53125 -8.609375 C 19.21875 -8.609375 16.78125 -16.0625 16.78125 -25.25 C 16.78125 -31.84375 18.078125 -39.4375 19.65625 -45.890625 C 19.796875 -46.609375 20.21875 -47.046875 20.9375 -47.328125 C 24.53125 -49.1875 28.25 -51.484375 32.84375 -54.359375 C 43.453125 -61.09375 61.953125 -75.734375 61.953125 -91.078125 C 61.953125 -97.8125 57.078125 -102.265625 49.765625 -102.265625 C 35.5625 -102.265625 19.078125 -82.1875 10.328125 -51.921875 C 10.046875 -51.34375 9.890625 -50.921875 9.609375 -50.34375 C 3.875 -41.15625 -0.4375 -36 -3.875 -31.40625 C -4.875 -29.96875 -5.59375 -28.25 -5.59375 -26.671875 C -5.59375 -24.375 -4.15625 -22.375 -1 -22.375 C 1.140625 -22.375 2.71875 -23.375 4.296875 -25.953125 C 4.453125 -26.25 4.734375 -26.671875 5.015625 -26.96875 C 5.3125 -27.53125 5.734375 -26.53125 5.734375 -25.390625 C 5.734375 -10.90625 12.328125 1.71875 26.25 1.71875 C 38.4375 1.71875 53.0625 -9.46875 64.828125 -25.953125 C 69.265625 -32.265625 61.09375 -37.4375 56.65625 -31.40625 Z M 49.34375 -91.640625 C 51.203125 -91.640625 52.0625 -90.640625 52.0625 -89.0625 C 52.0625 -82.03125 37.140625 -68.703125 27.53125 -62.390625 C 26.25 -61.671875 25.390625 -62.390625 26.109375 -63.671875 C 30.6875 -73.4375 41.453125 -91.640625 49.34375 -91.640625 Z M 49.34375 -91.640625 "/></g></g></g><g fill="#000000" fill-opacity="1"><g transform="translate(225.969989, 149.958639)"><g><path d="M 25.09375 -65.40625 C 28.96875 -65.546875 32.5625 -71 32.5625 -75.4375 C 32.5625 -76.875 32.125 -78.171875 31.40625 -79.03125 C 30.125 -81.03125 28.828125 -82.890625 26.25 -82.890625 C 21.9375 -82.890625 18.078125 -76.59375 18.078125 -71.5625 C 18.078125 -68.5625 19.65625 -65.828125 23.375 -65.40625 C 23.953125 -65.40625 24.53125 -65.25 25.09375 -65.40625 Z M 46.90625 -31.40625 C 37.296875 -18.5 27.109375 -8.3125 19.65625 -8.3125 C 16.0625 -8.3125 12.765625 -10.90625 13.1875 -16.5 C 13.625 -23.09375 17.78125 -36.421875 22.65625 -48.484375 C 25.953125 -57.375 15.640625 -60.53125 11.046875 -53.0625 C 8.46875 -48.90625 6.171875 -44.890625 -3.875 -31.40625 C -8.75 -24.953125 -1.4375 -18.359375 3.734375 -25.25 C 4.15625 -25.8125 4.734375 -26.53125 4.734375 -26.53125 C 4.734375 -26.671875 4.453125 -24.671875 4.15625 -23.234375 C 3.296875 -19.5 3.015625 -16.34375 3.015625 -14.203125 C 3.015625 -3.15625 10.609375 1.71875 18.640625 1.71875 C 29.6875 1.71875 43.3125 -9.890625 55.078125 -25.953125 C 59.515625 -32.125 51.625 -37.859375 46.90625 -31.40625 Z M 46.90625 -31.40625 "/></g></g></g><g fill="#000000" fill-opacity="1"><g transform="translate(276.731467, 149.958639)"><g><path d="M 85.625 -29.828125 C 84.625 -32.5625 83.328125 -33.421875 81.03125 -33.421875 L 80.03125 -33.421875 C 79.453125 -33.421875 78.734375 -33.125 77.734375 -32.125 C 74.4375 -29.546875 72.71875 -25.8125 69.984375 -22.515625 C 63.96875 -15.921875 58.515625 -10.90625 52.640625 -10.90625 C 48.625 -10.90625 44.453125 -13.1875 39.875 -19.078125 C 39.15625 -20.078125 39.4375 -20.796875 40.59375 -21.078125 C 54.359375 -23.953125 59.953125 -32.703125 59.953125 -40.59375 C 59.953125 -47.765625 55.078125 -54.0625 47.328125 -54.0625 C 41.59375 -54.0625 33.984375 -50.484375 23.671875 -37.296875 C 22.65625 -36.140625 21.515625 -36.71875 21.9375 -38 C 23.953125 -45.328125 24.953125 -49.1875 27.390625 -54.78125 C 27.6875 -55.5 28.109375 -55.9375 28.828125 -56.21875 C 42.59375 -62.390625 63.828125 -77.453125 63.828125 -92.796875 C 63.828125 -97.390625 60.09375 -104.40625 52.5 -104.40625 C 38 -104.40625 28.109375 -85.90625 22.09375 -66.40625 C 21.796875 -65.828125 21.65625 -65.40625 21.21875 -64.828125 C 12.625 -53.78125 8.890625 -48.625 -2.296875 -33.5625 C -9.171875 -24.375 -0.578125 -18.78125 4.453125 -25.8125 C 5.59375 -27.390625 6.890625 -29.109375 8.03125 -30.984375 C 8.890625 -32.125 9.75 -31.703125 9.46875 -30.40625 C 7.890625 -24.375 5.734375 -16.34375 3.015625 -2.71875 C 2.875 -1.859375 2.71875 -1.140625 2.71875 -0.4375 C 2.71875 3.015625 5.15625 5.3125 8.3125 5.3125 C 9.609375 5.3125 12.046875 5.453125 13.90625 0 C 16.203125 -6.734375 18.78125 -13.046875 23.671875 -20.515625 C 24.234375 -21.515625 25.09375 -21.515625 25.671875 -20.515625 C 33.28125 -9.03125 42.171875 -0.4375 52.34375 -0.4375 C 58.796875 -0.4375 65.6875 -3.578125 73.28125 -11.328125 C 74.296875 -12.484375 87.34375 -25.671875 85.625 -29.828125 Z M 51.0625 -94.65625 C 53.0625 -94.65625 53.359375 -92.796875 53.359375 -91.9375 C 53.359375 -85.765625 44.3125 -74.859375 35.859375 -70.421875 C 34.703125 -69.84375 33.984375 -70.5625 34.421875 -71.71875 C 36.859375 -78.734375 45.171875 -94.65625 51.0625 -94.65625 Z M 32.40625 -32.84375 C 34.703125 -36.140625 41.875 -43.59375 46.46875 -43.59375 C 49.1875 -43.59375 49.765625 -42.015625 49.625 -39.875 C 49.046875 -34.703125 42.3125 -30.6875 36 -30.6875 C 35 -30.6875 34.140625 -30.828125 33.125 -31.125 C 32.125 -31.265625 31.84375 -32.125 32.40625 -32.84375 Z M 32.40625 -32.84375 "/></g></g></g><g fill="#ff0000" fill-opacity="1"><g transform="translate(21.511777, 266.08963)"><g><path d="M 34 0 L 34 -76.5 L 51 -76.5 L 51 -85 L 8.5 -85 L 8.5 -76.5 L 25.5 -76.5 L 25.5 0 Z M 0 -68 L 8.5 -68 L 8.5 -76.5 L 0 -76.5 Z M 51 -68 L 59.5 -68 L 59.5 -76.5 L 51 -76.5 Z M 51 -68 "/></g></g></g><g fill="#ff0000" fill-opacity="1"><g transform="translate(93.888803, 266.08963)"><g><path d="M 0 -59.5 L 0 -8.5 L 8.5 -8.5 L 8.5 -34 L 42.5 -34 L 42.5 -59.5 L 34 -59.5 L 34 -42.5 L 8.5 -42.5 L 8.5 -59.5 Z M 8.5 0 L 34 0 L 34 -8.5 L 8.5 -8.5 Z M 8.5 -59.5 L 34 -59.5 L 34 -68 L 8.5 -68 Z M 34 -8.5 L 42.5 -8.5 L 42.5 -17 L 34 -17 Z M 34 -8.5 "/></g></g></g><g fill="#ff0000" fill-opacity="1"><g transform="translate(153.518789, 266.08963)"><g><path d="M 0 -85 L 0 0 L 8.5 0 L 8.5 -59.5 L 34 -59.5 L 34 -68 L 8.5 -68 L 8.5 -85 Z M 34 0 L 42.5 0 L 42.5 -59.5 L 34 -59.5 Z M 34 0 "/></g></g></g><g fill="#ff0000" fill-opacity="1"><g transform="translate(213.148775, 266.08963)"><g><path d="M 0 -34 L 0 -8.5 L 8.5 -8.5 L 8.5 -34 Z M 0 -51 L 8.5 -51 L 8.5 -59.5 L 0 -59.5 Z M 8.5 0 L 34 0 L 34 -8.5 L 8.5 -8.5 Z M 8.5 -34 L 34 -34 L 34 -8.5 L 42.5 -8.5 L 42.5 -59.5 L 34 -59.5 L 34 -42.5 L 8.5 -42.5 Z M 8.5 -59.5 L 34 -59.5 L 34 -68 L 8.5 -68 Z M 8.5 -59.5 "/></g></g></g><g fill="#ff0000" fill-opacity="1"><g transform="translate(272.778761, 266.08963)"><g><path d="M 0 -59.5 L 0 0 L 8.5 0 L 8.5 -59.5 Z M 8.5 -59.5 L 25.5 -59.5 L 25.5 -68 L 8.5 -68 Z M 25.5 0 L 34 0 L 34 -59.5 L 25.5 -59.5 Z M 34 -59.5 L 51 -59.5 L 51 -68 L 34 -68 Z M 51 0 L 59.5 0 L 59.5 -59.5 L 51 -59.5 Z M 51 0 "/></g></g></g><g fill="#ff0000" fill-opacity="1"><g transform="translate(349.40481, 266.08963)"><g><path d="M 0 -68 L 0 0 L 8.5 0 L 8.5 -68 Z M 0 -76.5 L 8.5 -76.5 L 8.5 -85 L 0 -85 Z M 0 -76.5 "/></g></g></g><g fill="#00ffff" fill-opacity="1"><g transform="translate(8.560478, 278.166914)"><g><path d="M 34 0 L 34 -76.5 L 51 -76.5 L 51 -85 L 8.5 -85 L 8.5 -76.5 L 25.5 -76.5 L 25.5 0 Z M 0 -68 L 8.5 -68 L 8.5 -76.5 L 0 -76.5 Z M 51 -68 L 59.5 -68 L 59.5 -76.5 L 51 -76.5 Z M 51 -68 "/></g></g></g><g fill="#00ffff" fill-opacity="1"><g transform="translate(80.937504, 278.166914)"><g><path d="M 0 -59.5 L 0 -8.5 L 8.5 -8.5 L 8.5 -34 L 42.5 -34 L 42.5 -59.5 L 34 -59.5 L 34 -42.5 L 8.5 -42.5 L 8.5 -59.5 Z M 8.5 0 L 34 0 L 34 -8.5 L 8.5 -8.5 Z M 8.5 -59.5 L 34 -59.5 L 34 -68 L 8.5 -68 Z M 34 -8.5 L 42.5 -8.5 L 42.5 -17 L 34 -17 Z M 34 -8.5 "/></g></g></g><g fill="#00ffff" fill-opacity="1"><g transform="translate(140.56749, 278.166914)"><g><path d="M 0 -85 L 0 0 L 8.5 0 L 8.5 -59.5 L 34 -59.5 L 34 -68 L 8.5 -68 L 8.5 -85 Z M 34 0 L 42.5 0 L 42.5 -59.5 L 34 -59.5 Z M 34 0 "/></g></g></g><g fill="#00ffff" fill-opacity="1"><g transform="translate(200.197476, 278.166914)"><g><path d="M 0 -34 L 0 -8.5 L 8.5 -8.5 L 8.5 -34 Z M 0 -51 L 8.5 -51 L 8.5 -59.5 L 0 -59.5 Z M 8.5 0 L 34 0 L 34 -8.5 L 8.5 -8.5 Z M 8.5 -34 L 34 -34 L 34 -8.5 L 42.5 -8.5 L 42.5 -59.5 L 34 -59.5 L 34 -42.5 L 8.5 -42.5 Z M 8.5 -59.5 L 34 -59.5 L 34 -68 L 8.5 -68 Z M 8.5 -59.5 "/></g></g></g><g fill="#00ffff" fill-opacity="1"><g transform="translate(259.827462, 278.166914)"><g><path d="M 0 -59.5 L 0 0 L 8.5 0 L 8.5 -59.5 Z M 8.5 -59.5 L 25.5 -59.5 L 25.5 -68 L 8.5 -68 Z M 25.5 0 L 34 0 L 34 -59.5 L 25.5 -59.5 Z M 34 -59.5 L 51 -59.5 L 51 -68 L 34 -68 Z M 51 0 L 59.5 0 L 59.5 -59.5 L 51 -59.5 Z M 51 0 "/></g></g></g><g fill="#00ffff" fill-opacity="1"><g transform="translate(336.45351, 278.166914)"><g><path d="M 0 -68 L 0 0 L 8.5 0 L 8.5 -68 Z M 0 -76.5 L 8.5 -76.5 L 8.5 -85 L 0 -85 Z M 0 -76.5 "/></g></g></g><g fill="#000000" fill-opacity="1"><g transform="translate(15.036129, 272.128272)"><g><path d="M 34 0 L 34 -76.5 L 51 -76.5 L 51 -85 L 8.5 -85 L 8.5 -76.5 L 25.5 -76.5 L 25.5 0 Z M 0 -68 L 8.5 -68 L 8.5 -76.5 L 0 -76.5 Z M 51 -68 L 59.5 -68 L 59.5 -76.5 L 51 -76.5 Z M 51 -68 "/></g></g></g><g fill="#000000" fill-opacity="1"><g transform="translate(87.413154, 272.128272)"><g><path d="M 0 -59.5 L 0 -8.5 L 8.5 -8.5 L 8.5 -34 L 42.5 -34 L 42.5 -59.5 L 34 -59.5 L 34 -42.5 L 8.5 -42.5 L 8.5 -59.5 Z M 8.5 0 L 34 0 L 34 -8.5 L 8.5 -8.5 Z M 8.5 -59.5 L 34 -59.5 L 34 -68 L 8.5 -68 Z M 34 -8.5 L 42.5 -8.5 L 42.5 -17 L 34 -17 Z M 34 -8.5 "/></g></g></g><g fill="#000000" fill-opacity="1"><g transform="translate(147.043141, 272.128272)"><g><path d="M 0 -85 L 0 0 L 8.5 0 L 8.5 -59.5 L 34 -59.5 L 34 -68 L 8.5 -68 L 8.5 -85 Z M 34 0 L 42.5 0 L 42.5 -59.5 L 34 -59.5 Z M 34 0 "/></g></g></g><g fill="#000000" fill-opacity="1"><g transform="translate(206.673127, 272.128272)"><g><path d="M 0 -34 L 0 -8.5 L 8.5 -8.5 L 8.5 -34 Z M 0 -51 L 8.5 -51 L 8.5 -59.5 L 0 -59.5 Z M 8.5 0 L 34 0 L 34 -8.5 L 8.5 -8.5 Z M 8.5 -34 L 34 -34 L 34 -8.5 L 42.5 -8.5 L 42.5 -59.5 L 34 -59.5 L 34 -42.5 L 8.5 -42.5 Z M 8.5 -59.5 L 34 -59.5 L 34 -68 L 8.5 -68 Z M 8.5 -59.5 "/></g></g></g><g fill="#000000" fill-opacity="1"><g transform="translate(266.303113, 272.128272)"><g><path d="M 0 -59.5 L 0 0 L 8.5 0 L 8.5 -59.5 Z M 8.5 -59.5 L 25.5 -59.5 L 25.5 -68 L 8.5 -68 Z M 25.5 0 L 34 0 L 34 -59.5 L 25.5 -59.5 Z M 34 -59.5 L 51 -59.5 L 51 -68 L 34 -68 Z M 51 0 L 59.5 0 L 59.5 -59.5 L 51 -59.5 Z M 51 0 "/></g></g></g><g fill="#000000" fill-opacity="1"><g transform="translate(342.929161, 272.128272)"><g><path d="M 0 -68 L 0 0 L 8.5 0 L 8.5 -68 Z M 0 -76.5 L 8.5 -76.5 L 8.5 -85 L 0 -85 Z M 0 -76.5 "/></g></g></g></svg>